<svg width="20" height="20" viewBox="0 0 20 20" fill="none" xmlns="http://www.w3.org/2000/svg">
    <path id="Vector" d="M6.5 17.75C6.91421 17.75 7.25 17.4142 7.25 17C7.25 16.5858 6.91421 16.25 6.5 16.25V17.75ZM5.8 17V16.25V17ZM3 14.2H3.75H3ZM3.75 13.5C3.75 13.0858 3.41421 12.75 3 12.75C2.58579 12.75 2.25 13.0858 2.25 13.5H3.75ZM3.95552 16.8093L4.29601 16.141H4.29601L3.95552 16.8093ZM3.19074 16.0445L3.85899 15.704L3.19074 16.0445ZM2.25 6.5C2.25 6.91421 2.58579 7.25 3 7.25C3.41421 7.25 3.75 6.91421 3.75 6.5H2.25ZM3 5.8H3.75H3ZM5.8 3V3.75V3ZM6.5 3.75C6.91421 3.75 7.25 3.41421 7.25 3C7.25 2.58579 6.91421 2.25 6.5 2.25V3.75ZM3.19074 3.95552L3.85899 4.29601L3.85899 4.29601L3.19074 3.95552ZM3.95552 3.19074L4.29601 3.85899L4.29601 3.85899L3.95552 3.19074ZM13.5 2.25C13.0858 2.25 12.75 2.58579 12.75 3C12.75 3.41421 13.0858 3.75 13.5 3.75V2.25ZM14.2 3V3.75V3ZM17 5.8H17.75H17ZM16.25 6.5C16.25 6.91421 16.5858 7.25 17 7.25C17.4142 7.25 17.75 6.91421 17.75 6.5H16.25ZM16.0445 3.19074L15.704 3.85899L15.704 3.85899L16.0445 3.19074ZM16.8093 3.95552L16.141 4.29601V4.29601L16.8093 3.95552ZM17.75 13.5C17.75 13.0858 17.4142 12.75 17 12.75C16.5858 12.75 16.25 13.0858 16.25 13.5H17.75ZM17 14.2H16.25H17ZM14.2 17V17.75V17ZM13.5 16.25C13.0858 16.25 12.75 16.5858 12.75 17C12.75 17.4142 13.0858 17.75 13.5 17.75V16.25ZM16.8093 16.0445L16.141 15.704V15.704L16.8093 16.0445ZM16.0445 16.8093L16.385 17.4775H16.385L16.0445 16.8093ZM6.5 9.25C6.08579 9.25 5.75 9.58579 5.75 10C5.75 10.4142 6.08579 10.75 6.5 10.75V9.25ZM13.5 10.75C13.9142 10.75 14.25 10.4142 14.25 10C14.25 9.58579 13.9142 9.25 13.5 9.25V10.75ZM6.5 16.25H5.8V17.75H6.5V16.25ZM3.75 14.2V13.5H2.25V14.2H3.75ZM5.8 16.25C5.29758 16.25 4.96587 16.2494 4.71168 16.2286C4.46624 16.2086 4.35983 16.1735 4.29601 16.141L3.61502 17.4775C3.92555 17.6357 4.25133 17.696 4.58953 17.7237C4.91897 17.7506 5.32233 17.75 5.8 17.75V16.25ZM2.25 14.2C2.25 14.6777 2.24942 15.081 2.27633 15.4105C2.30397 15.7487 2.36426 16.0745 2.52248 16.385L3.85899 15.704C3.82648 15.6402 3.7914 15.5338 3.77135 15.2883C3.75058 15.0341 3.75 14.7024 3.75 14.2H2.25ZM4.29601 16.141C4.10785 16.0451 3.95487 15.8922 3.85899 15.704L2.52248 16.385C2.76217 16.8554 3.14462 17.2378 3.61502 17.4775L4.29601 16.141ZM3.75 6.5L3.75 5.8H2.25L2.25 6.5H3.75ZM5.8 3.75H6.5V2.25H5.8V3.75ZM3.75 5.8C3.75 5.29758 3.75058 4.96587 3.77135 4.71168C3.7914 4.46624 3.82647 4.35983 3.85899 4.29601L2.52248 3.61502C2.36426 3.92555 2.30396 4.25133 2.27633 4.58953C2.24942 4.91897 2.25 5.32233 2.25 5.8H3.75ZM5.8 2.25C5.32233 2.25 4.91898 2.24942 4.58953 2.27633C4.25134 2.30396 3.92555 2.36426 3.61502 2.52248L4.29601 3.85899C4.35983 3.82648 4.46624 3.7914 4.71168 3.77135C4.96587 3.75058 5.29758 3.75 5.8 3.75V2.25ZM3.85899 4.29601C3.95487 4.10785 4.10785 3.95487 4.29601 3.85899L3.61502 2.52248C3.14462 2.76217 2.76217 3.14462 2.52248 3.61502L3.85899 4.29601ZM13.5 3.75L14.2 3.75V2.25L13.5 2.25V3.75ZM16.25 5.8V6.5H17.75V5.8H16.25ZM14.2 3.75C14.7024 3.75 15.0341 3.75058 15.2883 3.77135C15.5338 3.7914 15.6402 3.82647 15.704 3.85899L16.385 2.52248C16.0744 2.36426 15.7487 2.30396 15.4105 2.27633C15.081 2.24942 14.6777 2.25 14.2 2.25V3.75ZM17.75 5.8C17.75 5.32233 17.7506 4.91897 17.7237 4.58953C17.696 4.25134 17.6357 3.92555 17.4775 3.61502L16.141 4.29601C16.1735 4.35983 16.2086 4.46624 16.2286 4.71168C16.2494 4.96587 16.25 5.29758 16.25 5.8H17.75ZM15.704 3.85899C15.8922 3.95487 16.0451 4.10785 16.141 4.29601L17.4775 3.61502C17.2378 3.14462 16.8554 2.76217 16.385 2.52248L15.704 3.85899ZM16.25 13.5V14.2H17.75V13.5H16.25ZM14.2 16.25H13.5V17.75H14.2V16.25ZM16.25 14.2C16.25 14.7024 16.2494 15.0341 16.2286 15.2883C16.2086 15.5338 16.1735 15.6402 16.141 15.704L17.4775 16.385C17.6357 16.0745 17.696 15.7487 17.7237 15.4105C17.7506 15.081 17.75 14.6777 17.75 14.2H16.25ZM14.2 17.75C14.6777 17.75 15.081 17.7506 15.4105 17.7237C15.7487 17.696 16.0745 17.6357 16.385 17.4775L15.704 16.141C15.6402 16.1735 15.5338 16.2086 15.2883 16.2286C15.0341 16.2494 14.7024 16.25 14.2 16.25V17.75ZM16.141 15.704C16.0451 15.8922 15.8922 16.0451 15.704 16.141L16.385 17.4775C16.8554 17.2378 17.2378 16.8554 17.4775 16.385L16.141 15.704ZM6.5 10.75H13.5V9.25H6.5V10.75Z" fill="#1B1F26"/>
</svg>
